<?xml version="1.0" encoding="utf-8"?>
<!-- Generator: Adobe Illustrator 23.0.6, SVG Export Plug-In . SVG Version: 6.00 Build 0)  -->
<svg version="1.1" id="Layer_1" xmlns="http://www.w3.org/2000/svg" xmlns:xlink="http://www.w3.org/1999/xlink" x="0px" y="0px"
	 viewBox="0 0 115.7 15" style="enable-background:new 0 0 115.7 15;" xml:space="preserve">
<style type="text/css">
	.st0{fill:#FF0000;}
</style>
<g>
	<path class="st0" d="M4.8,1.6H3.3v-1h4.1v1H5.9v4.2H4.8V1.6z"/>
	<path class="st0" d="M8.1,0.6h3.5v1.1H9.2v1h2.3v1.1H9.2v1.1h2.5v1.1H8.1V0.6z"/>
	<path class="st0" d="M14.4,0.6h1l2.3,5.2h-1.3l-0.4-1.1h-2l-0.4,1.1h-1.3L14.4,0.6z M14.8,2.1l-0.6,1.6h1.3L14.8,2.1z"/>
	<path class="st0" d="M21.5,2c-0.1-0.1-0.3-0.2-0.4-0.3c-0.2-0.1-0.4-0.1-0.6-0.1c-0.2,0-0.4,0-0.6,0.1c-0.2,0.1-0.3,0.2-0.5,0.3
		c-0.1,0.2-0.2,0.3-0.3,0.5C19.1,2.8,19,3,19,3.2c0,0.2,0,0.5,0.1,0.7c0.1,0.2,0.2,0.4,0.3,0.5c0.1,0.1,0.3,0.3,0.5,0.3
		c0.2,0.1,0.4,0.1,0.6,0.1c0.2,0,0.4,0,0.6-0.1c0.2-0.1,0.3-0.2,0.4-0.4l1,0.7c-0.2,0.3-0.5,0.5-0.8,0.7C21.3,5.9,21,6,20.6,6
		c-0.4,0-0.8-0.1-1.1-0.2c-0.3-0.1-0.6-0.3-0.9-0.5C18.4,5,18.2,4.7,18,4.4c-0.1-0.3-0.2-0.7-0.2-1.1c0-0.4,0.1-0.8,0.2-1.1
		s0.3-0.6,0.6-0.9c0.3-0.2,0.5-0.4,0.9-0.5c0.3-0.1,0.7-0.2,1.1-0.2c0.1,0,0.3,0,0.5,0c0.2,0,0.3,0.1,0.5,0.1
		c0.2,0.1,0.3,0.1,0.4,0.2c0.1,0.1,0.3,0.2,0.4,0.4L21.5,2z"/>
	<path class="st0" d="M23.2,0.6h1.1v1.9h2.2V0.6h1.1v5.2h-1.1V3.6h-2.2v2.3h-1.1V0.6z"/>
	<path class="st0" d="M30.9,0.6h1.7L33.9,4h0l1.2-3.4h1.7v5.2h-1.1v-4h0l-1.4,4h-0.9l-1.3-4h0v4h-1.1V0.6z"/>
	<path class="st0" d="M37.9,0.6h3.5v1.1h-2.4v1h2.3v1.1h-2.3v1.1h2.5v1.1h-3.7V0.6z"/>
	<path class="st0" d="M44.7,0.6h1.1v1.9h2.2V0.6h1.1v5.2h-1.1V3.6h-2.2v2.3h-1.1V0.6z"/>
	<path class="st0" d="M50,3.2c0-0.4,0.1-0.8,0.2-1.1c0.1-0.3,0.3-0.6,0.6-0.9s0.5-0.4,0.9-0.5c0.3-0.1,0.7-0.2,1.1-0.2
		c0.4,0,0.8,0.1,1.1,0.2c0.3,0.1,0.6,0.3,0.9,0.5c0.3,0.2,0.4,0.5,0.6,0.9s0.2,0.7,0.2,1.1c0,0.4-0.1,0.8-0.2,1.1
		c-0.1,0.3-0.3,0.6-0.6,0.9c-0.3,0.2-0.5,0.4-0.9,0.5C53.6,5.9,53.2,6,52.8,6c-0.4,0-0.8-0.1-1.1-0.2c-0.3-0.1-0.6-0.3-0.9-0.5
		s-0.4-0.5-0.6-0.9C50.1,4,50,3.7,50,3.2z M51.2,3.2c0,0.2,0,0.5,0.1,0.7s0.2,0.4,0.3,0.5c0.1,0.1,0.3,0.3,0.5,0.3
		c0.2,0.1,0.4,0.1,0.7,0.1c0.2,0,0.5,0,0.7-0.1c0.2-0.1,0.4-0.2,0.5-0.3c0.1-0.2,0.3-0.3,0.3-0.5c0.1-0.2,0.1-0.4,0.1-0.7
		c0-0.2,0-0.5-0.1-0.7C54.2,2.4,54.1,2.2,54,2c-0.1-0.1-0.3-0.3-0.5-0.3c-0.2-0.1-0.4-0.1-0.7-0.1c-0.2,0-0.5,0-0.7,0.1
		S51.8,1.9,51.6,2c-0.1,0.2-0.3,0.3-0.3,0.5C51.2,2.8,51.2,3,51.2,3.2z"/>
	<path class="st0" d="M55.9,0.6h1.3L58,4h0l1.1-3.3h1.1l1.1,3.4h0l0.9-3.4h1.2l-1.5,5.2h-1l-1.2-3.6h0l-1.2,3.6h-1L55.9,0.6z"/>
	<path class="st0" d="M67,1.6h-1.5v-1h4.1v1h-1.5v4.2H67V1.6z"/>
	<path class="st0" d="M69.9,3.2c0-0.4,0.1-0.8,0.2-1.1c0.1-0.3,0.3-0.6,0.6-0.9s0.5-0.4,0.9-0.5c0.3-0.1,0.7-0.2,1.1-0.2
		s0.8,0.1,1.1,0.2c0.3,0.1,0.6,0.3,0.9,0.5c0.3,0.2,0.4,0.5,0.6,0.9s0.2,0.7,0.2,1.1c0,0.4-0.1,0.8-0.2,1.1C75.2,4.7,75,5,74.7,5.2
		c-0.3,0.2-0.5,0.4-0.9,0.5C73.5,5.9,73.1,6,72.7,6s-0.8-0.1-1.1-0.2c-0.3-0.1-0.6-0.3-0.9-0.5s-0.4-0.5-0.6-0.9
		C70,4,69.9,3.7,69.9,3.2z M71.1,3.2c0,0.2,0,0.5,0.1,0.7s0.2,0.4,0.3,0.5c0.1,0.1,0.3,0.3,0.5,0.3c0.2,0.1,0.4,0.1,0.7,0.1
		c0.2,0,0.5,0,0.7-0.1c0.2-0.1,0.4-0.2,0.5-0.3c0.1-0.2,0.3-0.3,0.3-0.5c0.1-0.2,0.1-0.4,0.1-0.7c0-0.2,0-0.5-0.1-0.7
		C74.1,2.4,74,2.2,73.9,2c-0.1-0.1-0.3-0.3-0.5-0.3S73,1.6,72.7,1.6c-0.2,0-0.5,0-0.7,0.1c-0.2,0.1-0.4,0.2-0.5,0.3
		c-0.1,0.2-0.3,0.3-0.3,0.5C71.1,2.8,71.1,3,71.1,3.2z"/>
	<path class="st0" d="M78.5,0.6h1.1v1.9h2.2V0.6H83v5.2h-1.1V3.6h-2.2v2.3h-1.1V0.6z"/>
	<path class="st0" d="M88.5,3.8c0,0.3,0,0.6-0.1,0.9c-0.1,0.3-0.2,0.5-0.4,0.7c-0.2,0.2-0.4,0.3-0.7,0.5C87,5.9,86.6,6,86.3,6
		c-0.4,0-0.7-0.1-1-0.2c-0.3-0.1-0.5-0.3-0.7-0.5c-0.2-0.2-0.3-0.4-0.4-0.7c-0.1-0.3-0.1-0.5-0.1-0.9V0.6h1.1v3.2
		c0,0.2,0,0.3,0.1,0.4c0.1,0.1,0.1,0.3,0.2,0.4c0.1,0.1,0.2,0.2,0.3,0.2s0.3,0.1,0.4,0.1c0.2,0,0.3,0,0.4-0.1
		c0.1-0.1,0.2-0.1,0.3-0.2c0.1-0.1,0.2-0.2,0.2-0.4c0.1-0.1,0.1-0.3,0.1-0.4V0.6h1.2V3.8z"/>
	<path class="st0" d="M90.5,1.6h-1.5v-1h4.1v1h-1.5v4.2h-1.2V1.6z"/>
	<path class="st0" d="M96.3,1.9c-0.1-0.1-0.2-0.2-0.4-0.3c-0.2-0.1-0.3-0.1-0.5-0.1c-0.1,0-0.2,0-0.3,0c-0.1,0-0.2,0.1-0.3,0.1
		c-0.1,0-0.1,0.1-0.2,0.2c0,0.1-0.1,0.2-0.1,0.3c0,0.2,0.1,0.3,0.2,0.4c0.1,0.1,0.3,0.2,0.4,0.2c0.2,0.1,0.4,0.1,0.6,0.2
		c0.2,0.1,0.4,0.1,0.6,0.3c0.2,0.1,0.3,0.3,0.4,0.4c0.1,0.2,0.2,0.4,0.2,0.7c0,0.3-0.1,0.5-0.2,0.8c-0.1,0.2-0.3,0.4-0.4,0.5
		c-0.2,0.1-0.4,0.2-0.6,0.3C95.7,5.9,95.4,6,95.1,6c-0.3,0-0.7-0.1-0.9-0.2c-0.3-0.1-0.6-0.3-0.8-0.5l0.8-0.9
		c0.1,0.2,0.3,0.3,0.4,0.4c0.2,0.1,0.4,0.1,0.6,0.1c0.1,0,0.2,0,0.3,0c0.1,0,0.2-0.1,0.3-0.1c0.1,0,0.1-0.1,0.2-0.2
		C96,4.5,96,4.5,96,4.4c0-0.2-0.1-0.3-0.2-0.4c-0.1-0.1-0.3-0.2-0.5-0.2c-0.2-0.1-0.4-0.1-0.6-0.2c-0.2-0.1-0.4-0.1-0.6-0.3
		c-0.2-0.1-0.3-0.3-0.5-0.4c-0.1-0.2-0.2-0.4-0.2-0.7c0-0.3,0.1-0.5,0.2-0.7c0.1-0.2,0.3-0.4,0.4-0.5c0.2-0.1,0.4-0.2,0.6-0.3
		c0.2-0.1,0.5-0.1,0.7-0.1c0.3,0,0.6,0,0.9,0.1c0.3,0.1,0.5,0.2,0.7,0.4L96.3,1.9z"/>
	<path class="st0" d="M98,0.6h1.9c0.3,0,0.5,0,0.8,0.1c0.2,0,0.5,0.1,0.6,0.3c0.2,0.1,0.3,0.3,0.4,0.5c0.1,0.2,0.2,0.5,0.2,0.8
		c0,0.3-0.1,0.6-0.1,0.8c-0.1,0.2-0.2,0.4-0.4,0.5c-0.2,0.1-0.4,0.2-0.6,0.3c-0.2,0.1-0.5,0.1-0.8,0.1h-0.8v2H98V0.6z M99.1,2.8h0.8
		c0.1,0,0.2,0,0.3,0c0.1,0,0.2-0.1,0.3-0.1c0.1,0,0.1-0.1,0.2-0.2s0.1-0.2,0.1-0.3c0-0.1,0-0.2-0.1-0.3c-0.1-0.1-0.1-0.1-0.2-0.2
		s-0.2-0.1-0.3-0.1c-0.1,0-0.2,0-0.3,0h-0.6V2.8z"/>
	<path class="st0" d="M102.4,3.2c0-0.4,0.1-0.8,0.2-1.1c0.1-0.3,0.3-0.6,0.6-0.9s0.5-0.4,0.9-0.5c0.3-0.1,0.7-0.2,1.1-0.2
		s0.8,0.1,1.1,0.2c0.3,0.1,0.6,0.3,0.9,0.5s0.4,0.5,0.6,0.9s0.2,0.7,0.2,1.1c0,0.4-0.1,0.8-0.2,1.1c-0.1,0.3-0.3,0.6-0.6,0.9
		s-0.5,0.4-0.9,0.5c-0.3,0.1-0.7,0.2-1.1,0.2s-0.8-0.1-1.1-0.2c-0.3-0.1-0.6-0.3-0.9-0.5s-0.4-0.5-0.6-0.9
		C102.4,4,102.4,3.7,102.4,3.2z M103.5,3.2c0,0.2,0,0.5,0.1,0.7c0.1,0.2,0.2,0.4,0.3,0.5c0.1,0.1,0.3,0.3,0.5,0.3
		c0.2,0.1,0.4,0.1,0.7,0.1c0.2,0,0.5,0,0.7-0.1c0.2-0.1,0.4-0.2,0.5-0.3c0.1-0.2,0.3-0.3,0.3-0.5c0.1-0.2,0.1-0.4,0.1-0.7
		c0-0.2,0-0.5-0.1-0.7c-0.1-0.2-0.2-0.4-0.3-0.5c-0.1-0.1-0.3-0.3-0.5-0.3c-0.2-0.1-0.4-0.1-0.7-0.1c-0.2,0-0.5,0-0.7,0.1
		c-0.2,0.1-0.4,0.2-0.5,0.3c-0.1,0.2-0.3,0.3-0.3,0.5C103.6,2.8,103.5,3,103.5,3.2z"/>
	<path class="st0" d="M109.8,1.6h-1.5v-1h4.1v1h-1.5v4.2h-1.2V1.6z"/>
	<path class="st0" d="M51.7,9.7v5h-0.6v-5H51.7z"/>
	<path class="st0" d="M52.8,13.9c0.3,0.2,0.7,0.3,1.2,0.3c0.7,0,1-0.3,1-0.8c0-0.5-0.3-0.7-0.9-1c-0.8-0.3-1.3-0.7-1.3-1.4
		c0-0.8,0.6-1.4,1.6-1.4c0.5,0,0.9,0.1,1.1,0.2l-0.2,0.5c-0.2-0.1-0.5-0.2-0.9-0.2c-0.7,0-0.9,0.4-0.9,0.7c0,0.5,0.3,0.7,1,1
		c0.8,0.3,1.3,0.7,1.3,1.5c0,0.8-0.6,1.4-1.7,1.4c-0.5,0-1-0.1-1.3-0.3L52.8,13.9z"/>
	<path class="st0" d="M60.3,14.5c-0.3,0.1-0.9,0.3-1.5,0.3c-0.8,0-1.4-0.2-1.9-0.7c-0.4-0.4-0.7-1.1-0.7-1.9c0-1.5,1-2.6,2.7-2.6
		c0.6,0,1,0.1,1.2,0.2L60,10.4c-0.3-0.1-0.6-0.2-1.1-0.2c-1.2,0-2,0.8-2,2c0,1.3,0.8,2,1.9,2c0.4,0,0.7-0.1,0.9-0.1v-1.5h-1v-0.5
		h1.6V14.5z"/>
	<path class="st0" d="M62,13.1l-0.5,1.6h-0.7l1.7-5h0.8l1.7,5h-0.7l-0.5-1.6H62z M63.7,12.6l-0.5-1.4c-0.1-0.3-0.2-0.6-0.3-0.9h0
		c-0.1,0.3-0.2,0.6-0.3,0.9l-0.5,1.4H63.7z"/>
</g>
</svg>
